<mxfile host="app.diagrams.net" modified="2021-04-07T02:24:17.158Z" agent="5.0 (Windows NT 10.0; Win64; x64) AppleWebKit/537.36 (KHTML, like Gecko) Chrome/90.0.4430.51 Safari/537.36 Edg/90.0.818.27" etag="NGzUgOyEr9w2IIlIhSoo" version="14.5.8" type="github">
  <diagram id="HWVgPAYNP34L6mYyvsB3" name="Page-1">
    <mxGraphModel dx="1422" dy="833" grid="1" gridSize="10" guides="1" tooltips="1" connect="1" arrows="1" fold="1" page="1" pageScale="1" pageWidth="827" pageHeight="1169" math="0" shadow="0">
      <root>
        <mxCell id="0" />
        <mxCell id="1" parent="0" />
        <mxCell id="0Vko0zwkdkP2mWhxBCAt-1" value="&lt;i&gt;&lt;font style=&quot;font-size: 16px&quot;&gt;环境参数&amp;nbsp;&lt;/font&gt;&lt;/i&gt;" style="shape=cube;whiteSpace=wrap;html=1;boundedLbl=1;backgroundOutline=1;darkOpacity=0.05;darkOpacity2=0.1;" vertex="1" parent="1">
          <mxGeometry x="400" y="400" width="126" height="80" as="geometry" />
        </mxCell>
        <mxCell id="0Vko0zwkdkP2mWhxBCAt-2" value="&lt;i&gt;&lt;font style=&quot;font-size: 16px&quot;&gt;理化参数&lt;/font&gt;&lt;/i&gt;" style="shape=cube;whiteSpace=wrap;html=1;boundedLbl=1;backgroundOutline=1;darkOpacity=0.05;darkOpacity2=0.1;" vertex="1" parent="1">
          <mxGeometry x="250" y="400" width="130" height="80" as="geometry" />
        </mxCell>
        <mxCell id="0Vko0zwkdkP2mWhxBCAt-3" value="&lt;i&gt;&lt;font style=&quot;font-size: 16px&quot;&gt;传质系数&lt;/font&gt;&lt;/i&gt;" style="shape=cube;whiteSpace=wrap;html=1;boundedLbl=1;backgroundOutline=1;darkOpacity=0.05;darkOpacity2=0.1;" vertex="1" parent="1">
          <mxGeometry x="390" y="340" width="100" height="80" as="geometry" />
        </mxCell>
        <mxCell id="0Vko0zwkdkP2mWhxBCAt-4" value="&lt;i&gt;&lt;font style=&quot;font-size: 16px&quot;&gt;逸度容量&lt;/font&gt;&lt;/i&gt;" style="shape=cube;whiteSpace=wrap;html=1;boundedLbl=1;backgroundOutline=1;darkOpacity=0.05;darkOpacity2=0.1;" vertex="1" parent="1">
          <mxGeometry x="290" y="340" width="100" height="80" as="geometry" />
        </mxCell>
        <mxCell id="0Vko0zwkdkP2mWhxBCAt-5" value="&lt;i&gt;&lt;font style=&quot;font-size: 17px&quot;&gt;传输系数&lt;/font&gt;&lt;/i&gt;" style="shape=cube;whiteSpace=wrap;html=1;boundedLbl=1;backgroundOutline=1;darkOpacity=0.05;darkOpacity2=0.1;" vertex="1" parent="1">
          <mxGeometry x="340" y="280" width="90" height="80" as="geometry" />
        </mxCell>
      </root>
    </mxGraphModel>
  </diagram>
</mxfile>
